<svg xmlns="http://www.w3.org/2000/svg" viewBox="0 0 361.3 482.8"><title>a-ticket-open</title><g id="Layer_2" data-name="Layer 2"><g id="Capa_1" data-name="Capa 1"><path d="M335.2,210.4h-7.1V147.5C328.1,66.2,262,0,180.6,0S33.1,66.1,33.1,147.5a13.5,13.5,0,0,0,27,0,120.5,120.5,0,0,1,241,0v62.9H26.1A26.12,26.12,0,0,0,0,236.5V404.6a78.31,78.31,0,0,0,78.2,78.2H283.1a78.31,78.31,0,0,0,78.2-78.2V236.5A26.12,26.12,0,0,0,335.2,210.4Zm-.9,194.2a51.23,51.23,0,0,1-51.2,51.2H78.3a51.23,51.23,0,0,1-51.2-51.2V237.4H334.3V404.6Z"/><path d="M180.7,399.1a50.5,50.5,0,1,0-50.5-50.5A50.55,50.55,0,0,0,180.7,399.1Zm0-74.1a23.55,23.55,0,1,1-23.5,23.6A23.54,23.54,0,0,1,180.7,325Z"/></g></g></svg>