<svg xmlns="http://www.w3.org/2000/svg" viewBox="0 0 361.3 479.8"><title>a-ticket-closed</title><g id="Layer_2" data-name="Layer 2"><g id="Capa_1" data-name="Capa 1"><path d="M61.1,210.4V147.5a120.5,120.5,0,0,1,241,0,13.5,13.5,0,0,0,27,0C329.1,66.1,262.9,0,181.6,0S34.1,66.2,34.1,147.5v62.9"/><path d="M329.1,210.4V147.5C329.1,66.2,263,0,181.6,0S34.1,66.1,34.1,147.5a13.5,13.5,0,0,0,27,0,120.5,120.5,0,0,1,241,0v62.9"/><path d="M26.1,207.4A26.12,26.12,0,0,0,0,233.5V401.6a78.31,78.31,0,0,0,78.2,78.2H283.1a78.31,78.31,0,0,0,78.2-78.2V233.5a26.12,26.12,0,0,0-26.1-26.1m-.9,194.2a51.23,51.23,0,0,1-51.2,51.2H78.3a51.23,51.23,0,0,1-51.2-51.2V234.4H334.3V401.6Z"/><path d="M180.7,396.1a50.5,50.5,0,1,0-50.5-50.5A50.55,50.55,0,0,0,180.7,396.1Zm0-74.1a23.55,23.55,0,1,1-23.5,23.6A23.54,23.54,0,0,1,180.7,322Z"/></g></g></svg>