<svg xmlns="http://www.w3.org/2000/svg" viewBox="0 0 488.9 360.6"><title>a-ticket-hold</title><g id="Layer_2" data-name="Layer 2"><g id="Capa_1" data-name="Capa 1"><path d="M479.9.4a12.37,12.37,0,0,0-13.8,5.8C403.8,116,286.3,121.8,209.6,122.1V42.6a12.24,12.24,0,0,0-20-9.5L4.4,186.3A12.21,12.21,0,0,0,0,195.7a11.85,11.85,0,0,0,4.5,9.4l185,152.7a12.42,12.42,0,0,0,7.8,2.8,11.67,11.67,0,0,0,5.2-1.2,12.15,12.15,0,0,0,7-11.1V268.5c117.7-4.4,184.3-55.7,219.7-98.8,44-53.5,59.7-116.5,59.7-157.6A12,12,0,0,0,479.9.4Zm-282.7,244a12.25,12.25,0,0,0-12.1,12.3v65.7L31.5,195.7,185.1,68.6v65.7a12.43,12.43,0,0,0,3.6,8.7,12.25,12.25,0,0,0,8.7,3.6c71.3,0,184.7,0,260.6-86.6C438.9,135.4,373.2,242.7,197.2,244.4Z"/></g></g></svg>