<svg xmlns="http://www.w3.org/2000/svg" viewBox="0 0 60 55">
  <title>d-activity-accounts</title>
  <g id="Layer_2" data-name="Layer 2">
    <g id="Capa_1" data-name="Capa 1">
      <path d="M55.52,44.05l-9.78-4.23a2.06,2.06,0,0,1-.7-.77h6.53a11.53,11.53,0,0,0,5-.67,2.93,2.93,0,0,0,1.66-1.91,3,3,0,0,0-.42-2.52c-1.87-2.65-6.22-9.59-6.35-16.62,0-.12-.4-12.08-12.21-12.18A14,14,0,0,0,34.4,6a8.39,8.39,0,0,0-1.49-2.46C30.85,1.19,27.52,0,23,0s-7.85,1.19-9.91,3.53A8.94,8.94,0,0,0,11,10.06v5.31A4,4,0,0,0,10,18v4a4,4,0,0,0,1.5,3.11A20.91,20.91,0,0,0,15,32.35v3.3A2.64,2.64,0,0,1,13.62,38L4.7,42.84A9,9,0,0,0,0,50.76V55H60V51.3A8.07,8.07,0,0,0,55.52,44.05ZM44,53H2V50.76A7,7,0,0,1,5.66,44.6l8.92-4.87A4.65,4.65,0,0,0,17,35.65v-4l-.23-.28a18.76,18.76,0,0,1-3.41-7.07l-.09-.39-.34-.22A2,2,0,0,1,12,22V18a2,2,0,0,1,.67-1.48l.33-.29V9.87a7,7,0,0,1,1.61-5C16.25,3,19.08,2,23,2s6.73,1,8.39,2.83a6.45,6.45,0,0,1,1.44,2.86c0,.07,0,.14.05.21s0,.15,0,.21l0,.23a.88.88,0,0,1,0,.16c0,.12,0,.24,0,.35v0c0,.11,0,.21,0,.3v.31c0,.24,0,.38,0,.38v6.36l.33.3A2,2,0,0,1,34,18v4a2,2,0,0,1-1.42,1.9l-.5.15-.16.5a21,21,0,0,1-2.83,5.71c-.3.42-.59.79-.84,1.08l-.25.28v4.13a4.52,4.52,0,0,0,.06.74l0,.16a4.25,4.25,0,0,0,.15.59s0,.09.05.13a5.46,5.46,0,0,0,.27.6l0,.07a4,4,0,0,0,.5.72l.23.29h0a4.8,4.8,0,0,0,1.18.85l9.56,4.78A7,7,0,0,1,44,51Zm14,0H46V51a9,9,0,0,0-5-8.07l-6.85-3.43a1.76,1.76,0,0,0,0-1.26A1.72,1.72,0,0,0,32.57,37H30.35c0-.08-.07-.16-.11-.25a2.55,2.55,0,0,1-.14-.35,2.61,2.61,0,0,1-.1-.69V32.37c.23-.28.47-.6.72-.95a22.8,22.8,0,0,0,3-5.8A4,4,0,0,0,36,22V18a4,4,0,0,0-1-2.62V10.06a8.83,8.83,0,0,0-.08-2.14,11.78,11.78,0,0,1,4.29-.78c9.84.08,10.2,9.81,10.21,10.22.14,7.58,4.74,14.92,6.71,17.73a1,1,0,0,1,.14.83.92.92,0,0,1-.53.61,9.86,9.86,0,0,1-4.08.52H44.78a1.84,1.84,0,0,0-1.66,2.65,4.22,4.22,0,0,0,1.78,1.93l9.75,4.22A6.07,6.07,0,0,1,58,51.3Z"/>
    </g>
  </g>
</svg>
