<svg xmlns="http://www.w3.org/2000/svg" viewBox="0 0 638.38 520.47">
  <title>d-activity-session</title>
  <g id="Layer_2" data-name="Layer 2">
    <g id="_ÎÓÈ_1" data-name="—ÎÓÈ_1">
      <g>
        <path d="M638.37,258.87v-.46c0-.72,0-1.44,0-2.15,0-.11,0-.21,0-.32,0-.71,0-1.43,0-2.14,0-.31,0-.62,0-.93l-.09-2.61c0-.2,0-.4,0-.59,0-.72-.07-1.43-.1-2.15l-.06-1.2c0-.31,0-.62,0-.93A260.28,260.28,0,0,0,342.67,2.44a255.83,255.83,0,0,0-97,33.84,259.42,259.42,0,0,0-66.11,55.78,17.19,17.19,0,1,0,25.84,22.68A228,228,0,0,1,236.45,84.3,226.28,226.28,0,0,1,400.6,35.38l.38,0,1.88.2A228.54,228.54,0,0,1,448,45.39a225.45,225.45,0,0,1,60.63,30.4l.31.23c.63.44,1.25.89,1.87,1.34l.69.5L513,79l.7.53c.51.38,1,.76,1.52,1.15l.53.41,1.72,1.33.21.17c72.3,56.92,105.33,155,75.26,247.5a224.48,224.48,0,0,1-58.36,93l-.1.1-1.42,1.34-1.15,1.08-.36.34a227.52,227.52,0,0,1-128.11,58.72l-1.49.16-.17,0q-9.94,1-20.12,1.19a228,228,0,0,1-50.12-4.78l-.82-.18-1.33-.29q-10.59-2.34-21.14-5.76a229.25,229.25,0,0,1-37.71-16.11A225.39,225.39,0,0,1,170.4,348.85a16.62,16.62,0,0,0-.92-1.84,17.12,17.12,0,0,0-31,14.56,261.85,261.85,0,0,0,23.83,44,257.2,257.2,0,0,0,119.19,96.21l.3.09a256.5,256.5,0,0,0,34.31,11l2.25.55,1,.24a257.64,257.64,0,0,0,119.88-.51l1.39-.34.41-.1A260.19,260.19,0,0,0,638.37,258.87Z" style="fill: #808285"/>
        <path d="M252.39,154.06a16.62,16.62,0,0,0-16.61-16.62H16.61a16.62,16.62,0,0,0,0,33.23H235.78A16.61,16.61,0,0,0,252.39,154.06Z" style="fill: #808285"/>
        <path d="M252.39,230.44a16.61,16.61,0,0,0-16.61-16.61H46.5a16.61,16.61,0,0,0,0,33.22H235.78A16.61,16.61,0,0,0,252.39,230.44Z" style="fill: #808285"/>
        <path d="M252.39,306.82a16.61,16.61,0,0,0-16.61-16.61H83a16.62,16.62,0,1,0,0,33.23H235.78A16.62,16.62,0,0,0,252.39,306.82Z" style="fill: #808285"/>
        <path d="M380.45,329,518.6,199.15A18.69,18.69,0,0,0,493,171.92L379.35,278.76a2.63,2.63,0,0,1-3.71-.09l-33.55-34.85a18.69,18.69,0,1,0-26.93,25.92L372,328.83A6,6,0,0,0,380.45,329Z" style="fill: #808285"/>
      </g>
    </g>
  </g>
</svg>
