<svg xmlns="http://www.w3.org/2000/svg" viewBox="0 0 511.67 512"><title>d-metrics-meetings</title><g id="Layer_2" data-name="Layer 2"><g id="Capa_1" data-name="Capa 1"><path d="M479.44,345.94a75,75,0,0,0-40.94-86.67l-54.38-25.36a44.51,44.51,0,0,0-9.63-3.22A44.93,44.93,0,0,0,390.84,196V136a75.11,75.11,0,0,0-61.25-73.72C323.25,27.45,292.86,0,255.84,0s-67.41,27.42-73.75,62.29A75.12,75.12,0,0,0,120.83,136v60a44.91,44.91,0,0,0,16.36,34.68,44.59,44.59,0,0,0-9.64,3.22L73.17,259.26a75,75,0,0,0-40.94,86.67C2.91,366.64-8.56,405.58,6.87,438.68s52.93,50.71,87.66,41.89A75.13,75.13,0,0,0,187.28,505l54.38-25.36A43.81,43.81,0,0,0,255.84,469,43.88,43.88,0,0,0,270,479.62L324.39,505a75.14,75.14,0,0,0,92.76-24.41c34.34,8.72,72-8.39,87.65-41.89C520.24,405.58,508.76,366.64,479.44,345.94Zm-108-84.84,54.38,25.35a45.09,45.09,0,0,1,25.53,47.14,75,75,0,0,0-83.47,41.62l25.32-54.31A15,15,0,0,0,386,301l-27.19-12.68a15,15,0,1,1,12.68-27.19ZM255.84,30c24.39,0,45,21.07,45,46a45,45,0,1,1-90,0C210.84,51.07,231.44,30,255.84,30Zm-105,106a45.09,45.09,0,0,1,32-43.07,75,75,0,0,0,146.1,0A45.08,45.08,0,0,1,360.84,136v60a15,15,0,0,1-30,0V166a15,15,0,0,0-15-15h-120a15,15,0,0,0-15,15v30a15,15,0,0,1-30,0V136Zm-65,150.44,54.38-25.35a15,15,0,0,1,12.68,27.19L125.72,301a15,15,0,0,0-7.26,19.93l25.34,54.34a75,75,0,0,0-83.48-41.65A45.09,45.09,0,0,1,85.85,286.45Zm9,162.31c-22.53,10.51-50.27-.18-60.8-22.76-10.39-22.28-.17-49.11,22.77-59.81A45,45,0,0,1,116.63,388C127.15,410.51,117.18,438.36,94.86,448.76ZM229,452.43,174.6,477.79A45.07,45.07,0,0,1,122.06,467a76.39,76.39,0,0,0,21.78-91.69l25.34,54.34a15,15,0,0,0,19.94,7.26l27.19-12.68a15,15,0,0,1,19.93,7.25C239.82,439.17,236.43,449,229,452.43Zm26.86-45a45,45,0,0,0-52.22-10.38L190,403.39l-38-81.57,13.6-6.34A45,45,0,0,0,175.24,240a45.07,45.07,0,0,0,35.6-44V181h90v15a45.06,45.06,0,0,0,35.6,44,45,45,0,0,0,9.65,75.47l13.59,6.34-38,81.57-13.6-6.34A45,45,0,0,0,255.84,407.43Zm81.23,70.36-54.38-25.36c-7.44-3.47-10.83-13.26-7.25-20.94a15,15,0,0,1,19.93-7.25l27.19,12.68a15,15,0,0,0,19.94-7.26l25.33-54.31A76.38,76.38,0,0,0,389.62,467,45.09,45.09,0,0,1,337.07,477.79ZM477.61,426c-10.52,22.57-38.26,33.28-60.8,22.76C394.5,438.36,384.53,410.51,395,388a45,45,0,0,1,59.81-21.77C477.79,376.89,488,403.72,477.61,426Z"/></g></g></svg>