<svg xmlns="http://www.w3.org/2000/svg" viewBox="0 0 450.9 451"><title>monitors</title><g id="Layer_2" data-name="Layer 2"><g id="Capa_1" data-name="Capa 1"><path d="M447,428,337.4,318.4a191.52,191.52,0,0,0,47.2-126.1C384.6,86.2,298.3,0,192.3,0S0,86.3,0,192.3,86.3,384.6,192.3,384.6a191.52,191.52,0,0,0,126.1-47.2L428,447a13.59,13.59,0,0,0,9.5,4,13.17,13.17,0,0,0,9.5-4A13.52,13.52,0,0,0,447,428ZM17.45,192.3c0-96.42,78.44-174.75,174.75-174.75S367,96,367,192.3,288.61,367.15,192.2,367.15,17.45,288.71,17.45,192.3Z"/><path d="M88,240a34.89,34.89,0,0,0,30.53-52l46-39.41a34.71,34.71,0,0,0,38.72,2.75l52.92,60.43a35.48,35.48,0,1,0,10.56-9.17L213.77,142.2A35.05,35.05,0,1,0,155.43,138l-46,39.41A34.68,34.68,0,0,0,88,170a35,35,0,1,0,0,70Zm182.2-22.8h0A21,21,0,1,1,263,233,21.08,21.08,0,0,1,270.15,217.19ZM186,100a21,21,0,0,1,13.8,36.8h0c-8.55,7.44-22.59,6.32-29.64-2.1l-.05-.06a.09.09,0,0,1,0-.05A20.64,20.64,0,0,1,165,121,21,21,0,0,1,186,100ZM88,184a21.13,21.13,0,0,1,21,21,21,21,0,1,1-21-21Z"/></g></g></svg>