<svg xmlns="http://www.w3.org/2000/svg" viewBox="0 0 481 481.05"><defs><style>.cls-1{fill:#fff;stroke:#fff;stroke-miterlimit:10;}</style></defs><title>support</title><g id="Layer_2" data-name="Layer 2"><g id="Capa_1" data-name="Capa 1"><path class="cls-1" d="M423.76,170.13C415.93,68.92,327.53-6.78,226.32,1.06A183.8,183.8,0,0,0,57.25,170.13a72.9,72.9,0,0,0-35.71,19.48A72,72,0,0,0,60.87,311.53a8,8,0,0,0,3.63,1,10.73,10.73,0,0,0,1.51-.16,6.36,6.36,0,0,0,.62-.19c1.94.15,3.87.35,5.87.35h16a8,8,0,0,0,8-8v-128a8,8,0,0,0-8-8h-15a167.79,167.79,0,0,1,334.12,0H392.5a8,8,0,0,0-8,8v128a8,8,0,0,0,8,8h16v16c0,61.71-48.24,108.61-113.23,111.7a31.94,31.94,0,1,0,.19,16c74-3.22,129-57,129-127.7V310.7a73.23,73.23,0,0,0,35-19.25,72.08,72.08,0,0,0-35.7-121.32ZM80.5,184.53v112h-8a58.62,58.62,0,0,1-7-.42,56,56,0,0,1,.16-111.2,58.13,58.13,0,0,1,6.85-.38Zm184,280a16,16,0,1,1,16-16A16,16,0,0,1,264.5,464.53Zm151-168.43a57,57,0,0,1-7,.43h-8v-112h8a56,56,0,0,1,7,111.57Z"/></g></g></svg>