<svg xmlns="http://www.w3.org/2000/svg" viewBox="0 0 512 435.27"><title>warning</title><g id="Layer_2" data-name="Layer 2"><g id="Layer_1-2" data-name="Layer 1"><path d="M507.49,387.7,282.86,15.17a31.37,31.37,0,0,0-53.73,0L4.51,387.7a31.36,31.36,0,0,0,26.86,47.57H480.63a31.37,31.37,0,0,0,26.86-47.57ZM256.17,128.86c12.9,0,23.81,7.28,23.81,20.18,0,39.36-4.63,95.93-4.63,135.29,0,10.26-11.24,14.56-19.18,14.56-10.59,0-19.52-4.3-19.52-14.56C236.65,245,232,188.4,232,149,232,136.14,242.6,128.86,256.17,128.86Zm.33,243.79a25.47,25.47,0,0,1,0-50.94c13.56,0,25.14,11.58,25.14,25.47C281.64,360.74,270.06,372.65,256.5,372.65Z"/></g></g></svg>