<svg xmlns="http://www.w3.org/2000/svg" viewBox="0 0 397.64 512">
  <title>CH</title>
  <g id="Layer_2" data-name="Layer 2">
    <g id="Layer_1-2" data-name="Layer 1">
      <path d="M377.26,110.65C344,45.88,277.18,0,198.8,0V101.33c55.48,0,100.59,43.67,100.6,99.15,0,54.81-45.5,102-100.6,102V512c70.65-73.62,152-154.54,187.53-251.43C404.12,212.12,400.8,156.5,377.26,110.65Z" style="fill: #b3b3b3"/>
      <path d="M11.31,260.57C46.89,357.46,128.19,438.38,198.84,512V302.53c-55.1,0-100.59-47.24-100.59-102,0-55.48,45.11-99.15,100.59-99.15V0C120.46,0,53.64,45.88,20.38,110.65-3.16,156.5-6.48,212.12,11.31,260.57Z" style="fill: #979797"/>
      <circle cx="198.82" cy="198.77" r="160" style="fill: #d80027"/>
      <g>
        <polygon points="126.39 136.16 140.21 178.68 184.91 178.68 148.74 204.95 162.56 247.47 126.39 221.19 90.22 247.47 104.04 204.95 67.87 178.68 112.58 178.68 126.39 136.16" style="fill: #ffda44"/>
        <polygon points="213.46 277.56 199.89 267.71 186.33 277.56 191.51 261.62 177.95 251.77 194.71 251.77 199.89 235.82 205.07 251.77 221.84 251.77 208.28 261.62 213.46 277.56" style="fill: #ffda44"/>
        <polygon points="248.84 228.87 232.07 228.87 226.89 244.81 221.71 228.87 204.95 228.87 218.51 219.01 213.33 203.07 226.89 212.93 240.46 203.07 235.27 219.01 248.84 228.87" style="fill: #ffda44"/>
        <polygon points="248.84 168.68 235.27 178.53 240.45 194.47 226.89 184.62 213.33 194.47 218.51 178.53 204.95 168.68 221.71 168.68 226.89 152.73 232.07 168.68 248.84 168.68" style="fill: #ffda44"/>
        <polygon points="213.46 119.98 208.28 135.92 221.84 145.78 205.08 145.78 199.9 161.72 194.71 145.78 177.95 145.78 191.51 135.92 186.33 119.98 199.89 129.84 213.46 119.98" style="fill: #ffda44"/>
      </g>
      <path d="M198.75,21.71C125,21.71,57.3,69.26,32.14,138.51,6.8,208.29,29,288.35,86.11,335.58s140.37,53.63,204,15.15,97.23-114.68,82.27-187.57c-14.65-71.39-74-128-146.07-139.32a178.93,178.93,0,0,0-27.54-2.13M341.41,263.18c-30.24,67-105.73,104.81-177.48,88.4C108.72,339,63.55,295.82,48.15,241.39,32.4,185.73,49.48,124.58,91.57,85,137.1,42.1,205.74,30.39,262.89,56.16c68.23,30.77,106,108.15,87.65,180.85a159.06,159.06,0,0,1-9.13,26.17c-2.09,4.63,1.54-3.44,0,0" style="fill: #c7c7c7"/>
    </g>
  </g>
</svg>
