<svg xmlns="http://www.w3.org/2000/svg" viewBox="0 0 26 25.93">
  <title>cog-install</title>
  <g id="Layer_2" data-name="Layer 2">
    <g id="Capa_1" data-name="Capa 1">
      <g>
        <path d="M22.93,11.16V8.67L20,8.19a7.37,7.37,0,0,0-.81-2l1.72-2.46L19.13,2,16.71,3.76a7.27,7.27,0,0,0-2-.82L14.22,0H11.74l-.48,2.93a7.5,7.5,0,0,0-2,.81L6.87,2,5.11,3.77,6.81,6.2a7,7,0,0,0-.82,2l-2.92.48v2.49L6,11.67a7.29,7.29,0,0,0,.83,2L5.08,16.07l1.76,1.75,2.43-1.7a7.18,7.18,0,0,0,2,.81l.49,2.94h2.48l.52-2.94a7.16,7.16,0,0,0,2-.83l2.45,1.72,1.76-1.75-1.75-2.43a7.43,7.43,0,0,0,.81-2ZM13,13.4a3.47,3.47,0,1,1,3.46-3.47A3.46,3.46,0,0,1,13,13.4Z"/>
        <path d="M24,18.93v4a1,1,0,0,1-1,1H3a1,1,0,0,1-1-1v-4H0v4a3,3,0,0,0,3,3H23a3,3,0,0,0,3-3v-4Z"/>
      </g>
    </g>
  </g>
</svg>
