<svg xmlns="http://www.w3.org/2000/svg" viewBox="0 0 397.64 512">
  <title>UK</title>
  <g id="Layer_2" data-name="Layer 2">
    <g id="Layer_1-2" data-name="Layer 1">
      <path d="M377.26,110.65C344,45.88,277.18,0,198.8,0V101.33c55.48,0,100.59,43.67,100.59,99.15,0,54.81-45.49,102-100.59,102V512c70.64-73.62,152-154.54,187.53-251.43C404.12,212.12,400.8,156.5,377.26,110.65Z" style="fill: #b3b3b3"/>
      <path d="M11.31,260.57C46.89,357.46,128.19,438.38,198.84,512V302.53c-55.1,0-100.6-47.25-100.59-102,0-55.48,45.11-99.15,100.59-99.15V0C120.46,0,53.64,45.88,20.38,110.65-3.16,156.5-6.48,212.12,11.31,260.57Z" style="fill: #979797"/>
      <circle cx="198.82" cy="198.77" r="160" style="fill: #f0f0f0"/>
      <g>
        <path d="M71.89,101.36A159.59,159.59,0,0,0,44.33,157h83.24Z" style="fill: #0052b4"/>
        <path d="M353.31,157a159.55,159.55,0,0,0-27.56-55.68L270.07,157Z" style="fill: #0052b4"/>
        <path d="M44.33,240.51a159.5,159.5,0,0,0,27.56,55.67l55.67-55.67Z" style="fill: #0052b4"/>
        <path d="M296.23,71.85a159.44,159.44,0,0,0-55.67-27.57v83.24Z" style="fill: #0052b4"/>
        <path d="M101.41,325.7a159.42,159.42,0,0,0,55.67,27.56V270Z" style="fill: #0052b4"/>
        <path d="M157.08,44.28a159.44,159.44,0,0,0-55.67,27.57l55.67,55.67Z" style="fill: #0052b4"/>
        <path d="M240.56,353.26a159.42,159.42,0,0,0,55.67-27.56L240.56,270Z" style="fill: #0052b4"/>
        <path d="M270.07,240.51l55.67,55.67a159.35,159.35,0,0,0,27.57-55.67Z" style="fill: #0052b4"/>
      </g>
      <g>
        <path d="M357.46,177.9H219.69V40.13a160.81,160.81,0,0,0-41.74,0V177.9H40.17a162,162,0,0,0,0,41.74H178V357.42a162,162,0,0,0,41.74,0V219.64H357.46a160.81,160.81,0,0,0,0-41.74Z" style="fill: #d80027"/>
        <path d="M240.56,240.51h0l71.4,71.4q4.92-4.92,9.4-10.27l-61.13-61.13Z" style="fill: #d80027"/>
        <path d="M157.08,240.51h0l-71.4,71.4c3.28,3.28,6.72,6.41,10.27,9.4l61.13-61.12V240.51Z" style="fill: #d80027"/>
        <path d="M157.08,157h0L85.68,85.64q-4.92,4.92-9.4,10.27L137.41,157h19.67Z" style="fill: #d80027"/>
        <path d="M240.56,157h0L312,85.64Q307,80.7,301.68,76.23l-61.12,61.13Z" style="fill: #d80027"/>
      </g>
      <path d="M198.75,21.71C125,21.71,57.3,69.26,32.14,138.51,6.79,208.29,29,288.35,86.11,335.58s140.37,53.63,204,15.15,97.23-114.68,82.27-187.57c-14.65-71.39-74-128-146.07-139.32a178.93,178.93,0,0,0-27.54-2.13M341.41,263.18c-30.24,67-105.73,104.81-177.48,88.4C108.72,339,63.55,295.82,48.15,241.39,32.4,185.73,49.48,124.58,91.57,85,137.1,42.1,205.74,30.39,262.89,56.16c68.23,30.77,106,108.15,87.65,180.85a159.06,159.06,0,0,1-9.13,26.17c-2.09,4.63,1.54-3.44,0,0" style="fill: #c7c7c7"/>
    </g>
  </g>
</svg>
