<svg xmlns="http://www.w3.org/2000/svg" viewBox="0 0 397.64 512">
  <title>USe</title>
  <g id="Layer_2" data-name="Layer 2">
    <g id="Layer_1-2" data-name="Layer 1">
      <path d="M377.26,110.65C344,45.88,277.18,0,198.8,0V101.33c55.48,0,100.59,43.67,100.59,99.15,0,54.81-45.49,102-100.59,102V512c70.64-73.62,152-154.54,187.53-251.43C404.12,212.12,400.8,156.5,377.26,110.65Z" style="fill: #b3b3b3"/>
      <path d="M11.31,260.57C46.89,357.46,128.19,438.38,198.84,512V302.53c-55.1,0-100.6-47.25-100.59-102,0-55.48,45.11-99.15,100.59-99.15V0C120.46,0,53.64,45.88,20.38,110.65-3.16,156.5-6.48,212.12,11.31,260.57Z" style="fill: #979797"/>
      <circle cx="198.82" cy="198.77" r="160" style="fill: #f0f0f0"/>
      <g>
        <path d="M191.86,198.77h167A160.06,160.06,0,0,0,353.31,157H191.86Z" style="fill: #d80027"/>
        <path d="M191.86,115.29H335.33a160.59,160.59,0,0,0-36.91-41.73H191.86v41.73Z" style="fill: #d80027"/>
      </g>
      <path d="M112.93,63.76h14.58L114,73.61l5.18,16L105.57,79.7,92,89.56l4.47-13.78a161,161,0,0,0-31,34.59h4.67l-8.63,6.27q-2,3.36-3.87,6.84l4.12,12.68-7.69-5.58q-2.86,6.07-5.23,12.42l4.54,14H70.12l-13.56,9.85,5.18,15.94-13.56-9.85-8.12,5.9a160.33,160.33,0,0,0-1.24,20h160v-160A159.25,159.25,0,0,0,112.93,63.76Zm6.2,119-13.56-9.85L92,182.77l5.18-15.94L83.63,157h16.76L105.57,141,110.75,157h16.77L114,166.83ZM114,120.22l5.18,15.94-13.56-9.85L92,136.16l5.18-15.94-13.56-9.85h16.76l5.18-16,5.18,16h16.77Zm62.58,62.55L163,172.92l-13.56,9.85,5.18-15.94L141,157h16.76L163,141,168.14,157h16.77l-13.56,9.85Zm-5.19-62.55,5.18,15.94L163,126.31l-13.56,9.85,5.18-15.94L141,110.37h16.76l5.18-16,5.18,16h16.77Zm0-46.61,5.18,16L163,79.7,149.4,89.56l5.18-16L141,63.76h16.76L163,47.82l5.18,15.94h16.77Z" style="fill: #0052b4"/>
      <path d="M198.75,21.71C125,21.71,57.3,69.26,32.14,138.51,6.79,208.29,29,288.35,86.11,335.58s140.37,53.63,204,15.15,97.23-114.68,82.27-187.57c-14.65-71.39-74-128-146.07-139.32a178.93,178.93,0,0,0-27.54-2.13M341.41,263.18c-30.24,67-105.73,104.81-177.48,88.4C108.72,339,63.55,295.82,48.15,241.39,32.4,185.73,49.48,124.58,91.57,85,137.1,42.1,205.74,30.39,262.89,56.16c68.23,30.77,106,108.15,87.65,180.85a159.06,159.06,0,0,1-9.13,26.17c-2.09,4.63,1.54-3.44,0,0" style="fill: #c7c7c7"/>
      <text transform="translate(88.39 291.85)" style="font-size: 96.002197265625px;fill: #0052b4;font-family: Roboto-Black, Roboto;font-weight: 800;letter-spacing: 0.04000254307330409em">E<tspan x="57.56" y="0" style="letter-spacing: -0.00000508614660817598em">AS</tspan><tspan x="183.05" y="0" style="letter-spacing: -0.029286032169877296em">T</tspan></text>
    </g>
  </g>
</svg>
