<svg xmlns="http://www.w3.org/2000/svg" viewBox="0 0 24 24">
  <title>view-state-1</title>
  <g id="Layer_2" data-name="Layer 2">
    <g id="Layer_1-2" data-name="Layer 1">
      <g>
        <polyline points="0.5 8.5 0.5 23.5 15.5 23.5" style="fill: none;stroke: #000;stroke-linecap: round;stroke-linejoin: round"/>
        <polyline points="5.5 0.5 4.5 0.5 4.5 1.5" style="fill: none;stroke: #000;stroke-linecap: round;stroke-linejoin: round"/>
        <polyline points="22.5 0.5 23.5 0.5 23.5 1.5" style="fill: none;stroke: #000;stroke-linecap: round;stroke-linejoin: round"/>
        <line x1="4.5" y1="3.5" x2="4.5" y2="4.5" style="fill: none;stroke: #000;stroke-linecap: round;stroke-linejoin: round"/>
        <line x1="8.5" y1="0.5" x2="7.5" y2="0.5" style="fill: none;stroke: #000;stroke-linecap: round;stroke-linejoin: round"/>
        <line x1="8.5" y1="19.5" x2="7.5" y2="19.5" style="fill: none;stroke: #000;stroke-linecap: round;stroke-linejoin: round"/>
        <line x1="11.5" y1="0.5" x2="10.5" y2="0.5" style="fill: none;stroke: #000;stroke-linecap: round;stroke-linejoin: round"/>
        <line x1="14.5" y1="0.5" x2="13.5" y2="0.5" style="fill: none;stroke: #000;stroke-linecap: round;stroke-linejoin: round"/>
        <line x1="17.5" y1="0.5" x2="16.5" y2="0.5" style="fill: none;stroke: #000;stroke-linecap: round;stroke-linejoin: round"/>
        <line x1="20.5" y1="0.5" x2="19.5" y2="0.5" style="fill: none;stroke: #000;stroke-linecap: round;stroke-linejoin: round"/>
        <line x1="11.5" y1="19.5" x2="10.5" y2="19.5" style="fill: none;stroke: #000;stroke-linecap: round;stroke-linejoin: round"/>
        <line x1="14.5" y1="19.5" x2="13.5" y2="19.5" style="fill: none;stroke: #000;stroke-linecap: round;stroke-linejoin: round"/>
        <line x1="17.5" y1="19.5" x2="16.5" y2="19.5" style="fill: none;stroke: #000;stroke-linecap: round;stroke-linejoin: round"/>
        <line x1="20.5" y1="19.5" x2="19.5" y2="19.5" style="fill: none;stroke: #000;stroke-linecap: round;stroke-linejoin: round"/>
        <polyline points="22.5 19.5 23.5 19.5 23.5 18.5" style="fill: none;stroke: #000;stroke-linecap: round;stroke-linejoin: round"/>
        <line x1="23.5" y1="16.5" x2="23.5" y2="15.5" style="fill: none;stroke: #000;stroke-linecap: round;stroke-linejoin: round"/>
        <polyline points="5.5 19.5 4.5 19.5 4.5 18.5" style="fill: none;stroke: #000;stroke-linecap: round;stroke-linejoin: round"/>
        <line x1="4.5" y1="16.5" x2="4.5" y2="15.5" style="fill: none;stroke: #000;stroke-linecap: round;stroke-linejoin: round"/>
        <line x1="23.5" y1="13.5" x2="23.5" y2="12.5" style="fill: none;stroke: #000;stroke-linecap: round;stroke-linejoin: round"/>
        <line x1="23.5" y1="10.5" x2="23.5" y2="9.5" style="fill: none;stroke: #000;stroke-linecap: round;stroke-linejoin: round"/>
        <line x1="23.5" y1="7.5" x2="23.5" y2="6.5" style="fill: none;stroke: #000;stroke-linecap: round;stroke-linejoin: round"/>
        <line x1="4.5" y1="13.5" x2="4.5" y2="12.5" style="fill: none;stroke: #000;stroke-linecap: round;stroke-linejoin: round"/>
        <line x1="4.5" y1="10.5" x2="4.5" y2="9.5" style="fill: none;stroke: #000;stroke-linecap: round;stroke-linejoin: round"/>
        <line x1="4.5" y1="7.5" x2="4.5" y2="6.5" style="fill: none;stroke: #000;stroke-linecap: round;stroke-linejoin: round"/>
        <line x1="23.5" y1="4.5" x2="23.5" y2="3.5" style="fill: none;stroke: #000;stroke-linecap: round;stroke-linejoin: round"/>
      </g>
    </g>
  </g>
</svg>
