<svg xmlns="http://www.w3.org/2000/svg" viewBox="0 0 24 24">
  <title>view-state-0</title>
  <g id="Layer_2" data-name="Layer 2">
    <g id="Layer_1-2" data-name="Layer 1">
      <g>
        <rect x="3.5" y="0.5" width="20" height="20" style="fill: none;stroke: #4e4e4e;stroke-linecap: round;stroke-linejoin: round"/>
        <line x1="12.5" y1="11.5" x2="20.5" y2="3.5" style="fill: none;stroke: #4e4e4e;stroke-linecap: round;stroke-linejoin: round"/>
        <polyline points="15.5 3.5 20.5 3.5 20.5 8.5" style="fill: none;stroke: #4e4e4e;stroke-linecap: round;stroke-linejoin: round"/>
        <polyline points="1.5 13.5 0.5 13.5 0.5 14.5" style="fill: none;stroke: #4e4e4e;stroke-linecap: round;stroke-linejoin: round"/>
        <line x1="0.5" y1="16.5" x2="0.5" y2="17.5" style="fill: none;stroke: #4e4e4e;stroke-linecap: round;stroke-linejoin: round"/>
        <line x1="4.5" y1="13.5" x2="3.5" y2="13.5" style="fill: none;stroke: #4e4e4e;stroke-linecap: round;stroke-linejoin: round"/>
        <line x1="7.5" y1="13.5" x2="6.5" y2="13.5" style="fill: none;stroke: #4e4e4e;stroke-linecap: round;stroke-linejoin: round"/>
        <line x1="4.5" y1="23.5" x2="3.5" y2="23.5" style="fill: none;stroke: #4e4e4e;stroke-linecap: round;stroke-linejoin: round"/>
        <line x1="7.5" y1="23.5" x2="6.5" y2="23.5" style="fill: none;stroke: #4e4e4e;stroke-linecap: round;stroke-linejoin: round"/>
        <polyline points="1.5 23.5 0.5 23.5 0.5 22.5" style="fill: none;stroke: #4e4e4e;stroke-linecap: round;stroke-linejoin: round"/>
        <line x1="0.5" y1="20.5" x2="0.5" y2="19.5" style="fill: none;stroke: #4e4e4e;stroke-linecap: round;stroke-linejoin: round"/>
        <polyline points="9.5 13.5 10.5 13.5 10.5 14.5" style="fill: none;stroke: #4e4e4e;stroke-linecap: round;stroke-linejoin: round"/>
        <line x1="10.5" y1="16.5" x2="10.5" y2="17.5" style="fill: none;stroke: #4e4e4e;stroke-linecap: round;stroke-linejoin: round"/>
        <polyline points="9.5 23.5 10.5 23.5 10.5 22.5" style="fill: none;stroke: #4e4e4e;stroke-linecap: round;stroke-linejoin: round"/>
        <line x1="10.5" y1="20.5" x2="10.5" y2="19.5" style="fill: none;stroke: #4e4e4e;stroke-linecap: round;stroke-linejoin: round"/>
      </g>
    </g>
  </g>
</svg>
