<?xml version="1.0" encoding="utf-8"?><svg xmlns="http://www.w3.org/2000/svg" xmlns:xlink="http://www.w3.org/1999/xlink"><symbol viewBox="0 0 397.64 512" id="CH" xmlns="http://www.w3.org/2000/svg"><g data-name="Layer 2"><g data-name="Layer 1"><path d="M377.26 110.65C344 45.88 277.18 0 198.8 0v101.33c55.48 0 100.59 43.67 100.6 99.15 0 54.81-45.5 102-100.6 102V512c70.65-73.62 152-154.54 187.53-251.43 17.79-48.45 14.47-104.07-9.07-149.92z" fill="#b3b3b3"/><path d="M11.31 260.57C46.89 357.46 128.19 438.38 198.84 512V302.53c-55.1 0-100.59-47.24-100.59-102 0-55.48 45.11-99.15 100.59-99.15V0C120.46 0 53.64 45.88 20.38 110.65-3.16 156.5-6.48 212.12 11.31 260.57z" fill="#979797"/><circle cx="198.82" cy="198.77" r="160" fill="#d80027"/><path d="M126.39 136.16l13.82 42.52h44.7l-36.17 26.27 13.82 42.52-36.17-26.28-36.17 26.28 13.82-42.52-36.17-26.27h44.71l13.81-42.52zm87.07 141.4l-13.57-9.85-13.56 9.85 5.18-15.94-13.56-9.85h16.76l5.18-15.95 5.18 15.95h16.77l-13.56 9.85 5.18 15.94zm35.38-48.69h-16.77l-5.18 15.94-5.18-15.94h-16.76l13.56-9.86-5.18-15.94 13.56 9.86 13.57-9.86-5.19 15.94 13.57 9.86zm0-60.19l-13.57 9.85 5.18 15.94-13.56-9.85-13.56 9.85 5.18-15.94-13.56-9.85h16.76l5.18-15.95 5.18 15.95h16.77zm-35.38-48.7l-5.18 15.94 13.56 9.86h-16.76l-5.18 15.94-5.19-15.94h-16.76l13.56-9.86-5.18-15.94 13.56 9.86 13.57-9.86z" fill="#ffda44"/><path d="M198.75 21.71C125 21.71 57.3 69.26 32.14 138.51 6.8 208.29 29 288.35 86.11 335.58s140.37 53.63 204 15.15 97.23-114.68 82.27-187.57c-14.65-71.39-74-128-146.07-139.32a178.93 178.93 0 0 0-27.54-2.13m142.64 241.47c-30.24 67-105.73 104.81-177.48 88.4C108.72 339 63.55 295.82 48.15 241.39 32.4 185.73 49.48 124.58 91.57 85c45.53-42.9 114.17-54.61 171.32-28.84 68.23 30.77 106 108.15 87.65 180.85a159.06 159.06 0 0 1-9.13 26.17c-2.09 4.63 1.54-3.44 0 0" fill="#c7c7c7"/></g></g></symbol><symbol viewBox="0 0 397.64 512" id="UK" xmlns="http://www.w3.org/2000/svg"><g data-name="Layer 2"><g data-name="Layer 1"><path d="M377.26 110.65C344 45.88 277.18 0 198.8 0v101.33c55.48 0 100.59 43.67 100.59 99.15 0 54.81-45.49 102-100.59 102V512c70.64-73.62 152-154.54 187.53-251.43 17.79-48.45 14.47-104.07-9.07-149.92z" fill="#b3b3b3"/><path d="M11.31 260.57C46.89 357.46 128.19 438.38 198.84 512V302.53c-55.1 0-100.6-47.25-100.59-102 0-55.48 45.11-99.15 100.59-99.15V0C120.46 0 53.64 45.88 20.38 110.65-3.16 156.5-6.48 212.12 11.31 260.57z" fill="#979797"/><circle cx="198.82" cy="198.77" r="160" fill="#f0f0f0"/><path d="M71.89 101.36A159.59 159.59 0 0 0 44.33 157h83.24zM353.31 157a159.55 159.55 0 0 0-27.56-55.68L270.07 157zM44.33 240.51a159.5 159.5 0 0 0 27.56 55.67l55.67-55.67zm251.9-168.66a159.44 159.44 0 0 0-55.67-27.57v83.24zM101.41 325.7a159.42 159.42 0 0 0 55.67 27.56V270zm55.67-281.42a159.44 159.44 0 0 0-55.67 27.57l55.67 55.67zm83.48 308.98a159.42 159.42 0 0 0 55.67-27.56L240.56 270zm29.51-112.75l55.67 55.67a159.35 159.35 0 0 0 27.57-55.67z" fill="#0052b4"/><g fill="#d80027"><path d="M357.46 177.9H219.69V40.13a160.81 160.81 0 0 0-41.74 0V177.9H40.17a162 162 0 0 0 0 41.74H178v137.78a162 162 0 0 0 41.74 0V219.64h137.72a160.81 160.81 0 0 0 0-41.74z"/><path d="M240.56 240.51l71.4 71.4q4.92-4.92 9.4-10.27l-61.13-61.13zm-83.48 0l-71.4 71.4c3.28 3.28 6.72 6.41 10.27 9.4l61.13-61.12v-19.68zm0-83.51l-71.4-71.36q-4.92 4.92-9.4 10.27L137.41 157h19.67zm83.48 0L312 85.64q-5-4.94-10.32-9.41l-61.12 61.13z"/></g><path d="M198.75 21.71C125 21.71 57.3 69.26 32.14 138.51 6.79 208.29 29 288.35 86.11 335.58s140.37 53.63 204 15.15 97.23-114.68 82.27-187.57c-14.65-71.39-74-128-146.07-139.32a178.93 178.93 0 0 0-27.54-2.13m142.64 241.47c-30.24 67-105.73 104.81-177.48 88.4C108.72 339 63.55 295.82 48.15 241.39 32.4 185.73 49.48 124.58 91.57 85c45.53-42.9 114.17-54.61 171.32-28.84 68.23 30.77 106 108.15 87.65 180.85a159.06 159.06 0 0 1-9.13 26.17c-2.09 4.63 1.54-3.44 0 0" fill="#c7c7c7"/></g></g></symbol><symbol viewBox="0 0 397.64 512" id="US" xmlns="http://www.w3.org/2000/svg"><g data-name="Layer 2"><g data-name="Layer 1"><path d="M377.26 110.65C344 45.88 277.18 0 198.8 0v101.33c55.48 0 100.59 43.67 100.59 99.15 0 54.81-45.49 102-100.59 102V512c70.64-73.62 152-154.54 187.53-251.43 17.79-48.45 14.47-104.07-9.07-149.92z" fill="#b3b3b3"/><path d="M11.31 260.57C46.89 357.46 128.19 438.38 198.84 512V302.53c-55.1 0-100.6-47.25-100.59-102 0-55.48 45.11-99.15 100.59-99.15V0C120.46 0 53.64 45.88 20.38 110.65-3.16 156.5-6.48 212.12 11.31 260.57z" fill="#979797"/><circle cx="198.82" cy="198.77" r="160" fill="#f0f0f0"/><path d="M191.86 198.77h167a160.06 160.06 0 0 0-5.55-41.77H191.86zm0-83.48h143.47a160.59 160.59 0 0 0-36.91-41.73H191.86v41.73zm6.96 243.48a159.31 159.31 0 0 0 99.6-34.77H99.22a159.29 159.29 0 0 0 99.6 34.77zM62.3 282.25h273a159 159 0 0 0 18-41.74h-309a159 159 0 0 0 18 41.74z" fill="#d80027"/><path d="M112.93 63.76h14.58L114 73.61l5.18 16-13.61-9.91L92 89.56l4.47-13.78a161 161 0 0 0-31 34.59h4.67l-8.63 6.27q-2 3.36-3.87 6.84l4.12 12.68-7.69-5.58q-2.86 6.07-5.23 12.42l4.54 14h16.74l-13.56 9.85 5.18 15.94-13.56-9.85-8.12 5.9a160.33 160.33 0 0 0-1.24 20h160v-160a159.25 159.25 0 0 0-85.89 24.92zm6.2 119l-13.56-9.85L92 182.77l5.18-15.94L83.63 157h16.76l5.18-16 5.18 16h16.77L114 166.83zM114 120.22l5.18 15.94-13.56-9.85L92 136.16l5.18-15.94-13.56-9.85h16.76l5.18-16 5.18 16h16.77zm62.58 62.55L163 172.92l-13.56 9.85 5.18-15.94L141 157h16.76l5.24-16 5.14 16h16.77l-13.56 9.85zm-5.19-62.55l5.18 15.94-13.57-9.85-13.56 9.85 5.18-15.94-13.62-9.85h16.76l5.18-16 5.18 16h16.77zm0-46.61l5.18 16L163 79.7l-13.6 9.86 5.18-16-13.58-9.8h16.76L163 47.82l5.18 15.94h16.77z" fill="#0052b4"/><path d="M198.75 21.71C125 21.71 57.3 69.26 32.14 138.51 6.79 208.29 29 288.35 86.11 335.58s140.37 53.63 204 15.15 97.23-114.68 82.27-187.57c-14.65-71.39-74-128-146.07-139.32a178.93 178.93 0 0 0-27.54-2.13m142.64 241.47c-30.24 67-105.73 104.81-177.48 88.4C108.72 339 63.55 295.82 48.15 241.39 32.4 185.73 49.48 124.58 91.57 85c45.53-42.9 114.17-54.61 171.32-28.84 68.23 30.77 106 108.15 87.65 180.85a159.06 159.06 0 0 1-9.13 26.17c-2.09 4.63 1.54-3.44 0 0" fill="#c7c7c7"/></g></g></symbol><symbol viewBox="0 0 397.64 512" id="USe" xmlns="http://www.w3.org/2000/svg"><g data-name="Layer 2"><g data-name="Layer 1"><path d="M377.26 110.65C344 45.88 277.18 0 198.8 0v101.33c55.48 0 100.59 43.67 100.59 99.15 0 54.81-45.49 102-100.59 102V512c70.64-73.62 152-154.54 187.53-251.43 17.79-48.45 14.47-104.07-9.07-149.92z" fill="#b3b3b3"/><path d="M11.31 260.57C46.89 357.46 128.19 438.38 198.84 512V302.53c-55.1 0-100.6-47.25-100.59-102 0-55.48 45.11-99.15 100.59-99.15V0C120.46 0 53.64 45.88 20.38 110.65-3.16 156.5-6.48 212.12 11.31 260.57z" fill="#979797"/><circle cx="198.82" cy="198.77" r="160" fill="#f0f0f0"/><path d="M191.86 198.77h167a160.06 160.06 0 0 0-5.55-41.77H191.86zm0-83.48h143.47a160.59 160.59 0 0 0-36.91-41.73H191.86v41.73z" fill="#d80027"/><path d="M112.93 63.76h14.58L114 73.61l5.18 16-13.61-9.91L92 89.56l4.47-13.78a161 161 0 0 0-31 34.59h4.67l-8.63 6.27q-2 3.36-3.87 6.84l4.12 12.68-7.69-5.58q-2.86 6.07-5.23 12.42l4.54 14h16.74l-13.56 9.85 5.18 15.94-13.56-9.85-8.12 5.9a160.33 160.33 0 0 0-1.24 20h160v-160a159.25 159.25 0 0 0-85.89 24.92zm6.2 119l-13.56-9.85L92 182.77l5.18-15.94L83.63 157h16.76l5.18-16 5.18 16h16.77L114 166.83zM114 120.22l5.18 15.94-13.56-9.85L92 136.16l5.18-15.94-13.56-9.85h16.76l5.18-16 5.18 16h16.77zm62.58 62.55L163 172.92l-13.56 9.85 5.18-15.94L141 157h16.76l5.24-16 5.14 16h16.77l-13.56 9.85zm-5.19-62.55l5.18 15.94-13.57-9.85-13.56 9.85 5.18-15.94-13.62-9.85h16.76l5.18-16 5.18 16h16.77zm0-46.61l5.18 16L163 79.7l-13.6 9.86 5.18-16-13.58-9.8h16.76L163 47.82l5.18 15.94h16.77z" fill="#0052b4"/><path d="M198.75 21.71C125 21.71 57.3 69.26 32.14 138.51 6.79 208.29 29 288.35 86.11 335.58s140.37 53.63 204 15.15 97.23-114.68 82.27-187.57c-14.65-71.39-74-128-146.07-139.32a178.93 178.93 0 0 0-27.54-2.13m142.64 241.47c-30.24 67-105.73 104.81-177.48 88.4C108.72 339 63.55 295.82 48.15 241.39 32.4 185.73 49.48 124.58 91.57 85c45.53-42.9 114.17-54.61 171.32-28.84 68.23 30.77 106 108.15 87.65 180.85a159.06 159.06 0 0 1-9.13 26.17c-2.09 4.63 1.54-3.44 0 0" fill="#c7c7c7"/><text transform="translate(88.39 291.85)" font-size="96.002" fill="#0052b4" font-family="Roboto-Black,Roboto" font-weight="800" letter-spacing=".04em">E<tspan x="57.56" y="0" letter-spacing="0em">AS</tspan><tspan x="183.05" y="0" letter-spacing="-.029em">T</tspan></text></g></g></symbol></svg>